<?xml version="1.0" encoding="UTF-8" standalone="no"?>
<!DOCTYPE svg PUBLIC "-//W3C//DTD SVG 1.1//EN"
 "http://www.w3.org/Graphics/SVG/1.1/DTD/svg11.dtd">
<!-- Generated by graphviz version 5.0.0 (20220707.1540)
 -->
<!-- Title: dependencies Pages: 1 -->
<svg width="1896pt" height="247pt"
 viewBox="0.00 0.00 1896.00 246.80" xmlns="http://www.w3.org/2000/svg" xmlns:xlink="http://www.w3.org/1999/xlink">
<g id="graph0" class="graph" transform="scale(1 1) rotate(0) translate(4 242.8)">
<title>dependencies</title>
<polygon fill="white" stroke="transparent" points="-4,4 -4,-242.8 1892,-242.8 1892,4 -4,4"/>
<text text-anchor="middle" x="944" y="-8.2" font-family="sans-serif" font-size="14.00">dependencies</text>
<g id="clust1" class="cluster">
<title>cluster_AppModule</title>
<polygon fill="none" stroke="black" stroke-dasharray="1,5" points="8,-32.8 8,-230.8 1880,-230.8 1880,-32.8 8,-32.8"/>
</g>
<g id="clust2" class="cluster">
<title>cluster_AppModule_declarations</title>
<polygon fill="none" stroke="black" points="168,-40.8 168,-92.8 1872,-92.8 1872,-40.8 168,-40.8"/>
</g>
<g id="clust14" class="cluster">
<title>cluster_AppModule_imports</title>
<polygon fill="none" stroke="black" points="16,-40.8 16,-92.8 160,-92.8 160,-40.8 16,-40.8"/>
</g>
<g id="clust16" class="cluster">
<title>cluster_AppModule_bootstrap</title>
<polygon fill="none" stroke="black" points="897,-170.8 897,-222.8 1021,-222.8 1021,-170.8 897,-170.8"/>
</g>
<!-- AppComponent -->
<g id="node1" class="node">
<title>AppComponent</title>
<polygon fill="#ffffb3" stroke="black" points="1863.94,-84.8 1758.06,-84.8 1758.06,-48.8 1863.94,-48.8 1863.94,-84.8"/>
<text text-anchor="middle" x="1811" y="-62.6" font-family="Times,serif" font-size="14.00">AppComponent</text>
</g>
<!-- AppModule -->
<g id="node12" class="node">
<title>AppModule</title>
<polygon fill="#8dd3c7" stroke="black" points="1000.66,-149.8 997.66,-153.8 976.66,-153.8 973.66,-149.8 917.34,-149.8 917.34,-113.8 1000.66,-113.8 1000.66,-149.8"/>
<text text-anchor="middle" x="959" y="-127.6" font-family="Times,serif" font-size="14.00">AppModule</text>
</g>
<!-- AppComponent&#45;&gt;AppModule -->
<g id="edge1" class="edge">
<title>AppComponent&#45;&gt;AppModule</title>
<path fill="none" stroke="black" d="M1811,-85.05C1811,-107.82 1811,-143.8 1811,-143.8 1811,-143.8 1010.67,-143.8 1010.67,-143.8"/>
<polygon fill="black" stroke="black" points="1010.67,-140.3 1000.67,-143.8 1010.67,-147.3 1010.67,-140.3"/>
</g>
<!-- CreateDocumentComponent -->
<g id="node2" class="node">
<title>CreateDocumentComponent</title>
<polygon fill="#ffffb3" stroke="black" points="1740.18,-84.8 1563.82,-84.8 1563.82,-48.8 1740.18,-48.8 1740.18,-84.8"/>
<text text-anchor="middle" x="1652" y="-62.6" font-family="Times,serif" font-size="14.00">CreateDocumentComponent</text>
</g>
<!-- CreateDocumentComponent&#45;&gt;AppModule -->
<g id="edge2" class="edge">
<title>CreateDocumentComponent&#45;&gt;AppModule</title>
<path fill="none" stroke="black" d="M1652,-85.08C1652,-106.12 1652,-137.8 1652,-137.8 1652,-137.8 1010.79,-137.8 1010.79,-137.8"/>
<polygon fill="black" stroke="black" points="1010.79,-134.3 1000.79,-137.8 1010.79,-141.3 1010.79,-134.3"/>
</g>
<!-- DocumentInfoComponent -->
<g id="node3" class="node">
<title>DocumentInfoComponent</title>
<polygon fill="#ffffb3" stroke="black" points="1545.47,-84.8 1382.53,-84.8 1382.53,-48.8 1545.47,-48.8 1545.47,-84.8"/>
<text text-anchor="middle" x="1464" y="-62.6" font-family="Times,serif" font-size="14.00">DocumentInfoComponent</text>
</g>
<!-- DocumentInfoComponent&#45;&gt;AppModule -->
<g id="edge3" class="edge">
<title>DocumentInfoComponent&#45;&gt;AppModule</title>
<path fill="none" stroke="black" d="M1464,-84.91C1464,-104.14 1464,-131.8 1464,-131.8 1464,-131.8 1010.76,-131.8 1010.76,-131.8"/>
<polygon fill="black" stroke="black" points="1010.76,-128.3 1000.76,-131.8 1010.76,-135.3 1010.76,-128.3"/>
</g>
<!-- EditorComponent -->
<g id="node4" class="node">
<title>EditorComponent</title>
<polygon fill="#ffffb3" stroke="black" points="1364.32,-84.8 1247.68,-84.8 1247.68,-48.8 1364.32,-48.8 1364.32,-84.8"/>
<text text-anchor="middle" x="1306" y="-62.6" font-family="Times,serif" font-size="14.00">EditorComponent</text>
</g>
<!-- EditorComponent&#45;&gt;AppModule -->
<g id="edge4" class="edge">
<title>EditorComponent&#45;&gt;AppModule</title>
<path fill="none" stroke="black" d="M1306,-84.82C1306,-102.17 1306,-125.8 1306,-125.8 1306,-125.8 1010.86,-125.8 1010.86,-125.8"/>
<polygon fill="black" stroke="black" points="1010.86,-122.3 1000.86,-125.8 1010.86,-129.3 1010.86,-122.3"/>
</g>
<!-- FooterComponent -->
<g id="node5" class="node">
<title>FooterComponent</title>
<polygon fill="#ffffb3" stroke="black" points="1229.88,-84.8 1112.12,-84.8 1112.12,-48.8 1229.88,-48.8 1229.88,-84.8"/>
<text text-anchor="middle" x="1171" y="-62.6" font-family="Times,serif" font-size="14.00">FooterComponent</text>
</g>
<!-- FooterComponent&#45;&gt;AppModule -->
<g id="edge5" class="edge">
<title>FooterComponent&#45;&gt;AppModule</title>
<path fill="none" stroke="black" d="M1171,-85.04C1171,-100.37 1171,-119.8 1171,-119.8 1171,-119.8 1010.88,-119.8 1010.88,-119.8"/>
<polygon fill="black" stroke="black" points="1010.88,-116.3 1000.88,-119.8 1010.88,-123.3 1010.88,-116.3"/>
</g>
<!-- HomeComponent -->
<g id="node6" class="node">
<title>HomeComponent</title>
<polygon fill="#ffffb3" stroke="black" points="1093.55,-84.8 978.45,-84.8 978.45,-48.8 1093.55,-48.8 1093.55,-84.8"/>
<text text-anchor="middle" x="1036" y="-62.6" font-family="Times,serif" font-size="14.00">HomeComponent</text>
</g>
<!-- HomeComponent&#45;&gt;AppModule -->
<g id="edge6" class="edge">
<title>HomeComponent&#45;&gt;AppModule</title>
<path fill="none" stroke="black" d="M989.53,-84.91C989.53,-84.91 989.53,-103.79 989.53,-103.79"/>
<polygon fill="black" stroke="black" points="986.03,-103.79 989.53,-113.79 993.03,-103.79 986.03,-103.79"/>
</g>
<!-- HowItWorksComponent -->
<g id="node7" class="node">
<title>HowItWorksComponent</title>
<polygon fill="#ffffb3" stroke="black" points="960.43,-84.8 805.57,-84.8 805.57,-48.8 960.43,-48.8 960.43,-84.8"/>
<text text-anchor="middle" x="883" y="-62.6" font-family="Times,serif" font-size="14.00">HowItWorksComponent</text>
</g>
<!-- HowItWorksComponent&#45;&gt;AppModule -->
<g id="edge7" class="edge">
<title>HowItWorksComponent&#45;&gt;AppModule</title>
<path fill="none" stroke="black" d="M938.69,-84.91C938.69,-84.91 938.69,-103.79 938.69,-103.79"/>
<polygon fill="black" stroke="black" points="935.19,-103.79 938.69,-113.79 942.19,-103.79 935.19,-103.79"/>
</g>
<!-- MonacoComponent -->
<g id="node8" class="node">
<title>MonacoComponent</title>
<polygon fill="#ffffb3" stroke="black" points="787.71,-84.8 660.29,-84.8 660.29,-48.8 787.71,-48.8 787.71,-84.8"/>
<text text-anchor="middle" x="724" y="-62.6" font-family="Times,serif" font-size="14.00">MonacoComponent</text>
</g>
<!-- MonacoComponent&#45;&gt;AppModule -->
<g id="edge8" class="edge">
<title>MonacoComponent&#45;&gt;AppModule</title>
<path fill="none" stroke="black" d="M724,-85.04C724,-100.37 724,-119.8 724,-119.8 724,-119.8 907.26,-119.8 907.26,-119.8"/>
<polygon fill="black" stroke="black" points="907.26,-123.3 917.26,-119.8 907.26,-116.3 907.26,-123.3"/>
</g>
<!-- OpenDocumentComponent -->
<g id="node9" class="node">
<title>OpenDocumentComponent</title>
<polygon fill="#ffffb3" stroke="black" points="641.97,-84.8 472.03,-84.8 472.03,-48.8 641.97,-48.8 641.97,-84.8"/>
<text text-anchor="middle" x="557" y="-62.6" font-family="Times,serif" font-size="14.00">OpenDocumentComponent</text>
</g>
<!-- OpenDocumentComponent&#45;&gt;AppModule -->
<g id="edge9" class="edge">
<title>OpenDocumentComponent&#45;&gt;AppModule</title>
<path fill="none" stroke="black" d="M557,-84.82C557,-102.17 557,-125.8 557,-125.8 557,-125.8 907.12,-125.8 907.12,-125.8"/>
<polygon fill="black" stroke="black" points="907.12,-129.3 917.12,-125.8 907.12,-122.3 907.12,-129.3"/>
</g>
<!-- ToolbarComponent -->
<g id="node10" class="node">
<title>ToolbarComponent</title>
<polygon fill="#ffffb3" stroke="black" points="453.65,-84.8 328.35,-84.8 328.35,-48.8 453.65,-48.8 453.65,-84.8"/>
<text text-anchor="middle" x="391" y="-62.6" font-family="Times,serif" font-size="14.00">ToolbarComponent</text>
</g>
<!-- ToolbarComponent&#45;&gt;AppModule -->
<g id="edge10" class="edge">
<title>ToolbarComponent&#45;&gt;AppModule</title>
<path fill="none" stroke="black" d="M391,-84.91C391,-104.14 391,-131.8 391,-131.8 391,-131.8 907.23,-131.8 907.23,-131.8"/>
<polygon fill="black" stroke="black" points="907.23,-135.3 917.23,-131.8 907.23,-128.3 907.23,-135.3"/>
</g>
<!-- WelcomeComponent -->
<g id="node11" class="node">
<title>WelcomeComponent</title>
<polygon fill="#ffffb3" stroke="black" points="310.47,-84.8 175.53,-84.8 175.53,-48.8 310.47,-48.8 310.47,-84.8"/>
<text text-anchor="middle" x="243" y="-62.6" font-family="Times,serif" font-size="14.00">WelcomeComponent</text>
</g>
<!-- WelcomeComponent&#45;&gt;AppModule -->
<g id="edge11" class="edge">
<title>WelcomeComponent&#45;&gt;AppModule</title>
<path fill="none" stroke="black" d="M243,-85.08C243,-106.12 243,-137.8 243,-137.8 243,-137.8 907.15,-137.8 907.15,-137.8"/>
<polygon fill="black" stroke="black" points="907.15,-141.3 917.15,-137.8 907.15,-134.3 907.15,-141.3"/>
</g>
<!-- AppComponent  -->
<g id="node14" class="node">
<title>AppComponent </title>
<polygon fill="#80b1d3" stroke="black" points="1013.44,-214.8 904.56,-214.8 904.56,-178.8 1013.44,-178.8 1013.44,-214.8"/>
<text text-anchor="middle" x="959" y="-192.6" font-family="Times,serif" font-size="14.00">AppComponent </text>
</g>
<!-- AppModule&#45;&gt;AppComponent  -->
<g id="edge13" class="edge">
<title>AppModule&#45;&gt;AppComponent </title>
<path fill="none" stroke="black" stroke-dasharray="1,5" d="M959,-149.91C959,-149.91 959,-168.79 959,-168.79"/>
<polygon fill="black" stroke="black" points="955.5,-168.79 959,-178.79 962.5,-168.79 955.5,-168.79"/>
</g>
<!-- AppRoutingModule -->
<g id="node13" class="node">
<title>AppRoutingModule</title>
<polygon fill="#8dd3c7" stroke="black" points="152.28,-84.8 149.28,-88.8 128.28,-88.8 125.28,-84.8 23.72,-84.8 23.72,-48.8 152.28,-48.8 152.28,-84.8"/>
<text text-anchor="middle" x="88" y="-62.6" font-family="Times,serif" font-size="14.00">AppRoutingModule</text>
</g>
<!-- AppRoutingModule&#45;&gt;AppModule -->
<g id="edge12" class="edge">
<title>AppRoutingModule&#45;&gt;AppModule</title>
<path fill="none" stroke="black" d="M88,-85.05C88,-107.82 88,-143.8 88,-143.8 88,-143.8 907.28,-143.8 907.28,-143.8"/>
<polygon fill="black" stroke="black" points="907.28,-147.3 917.28,-143.8 907.28,-140.3 907.28,-147.3"/>
</g>
</g>
</svg>
