<?xml version="1.0" encoding="UTF-8" standalone="no"?>
<!DOCTYPE svg PUBLIC "-//W3C//DTD SVG 1.1//EN"
 "http://www.w3.org/Graphics/SVG/1.1/DTD/svg11.dtd">
<!-- Generated by graphviz version 5.0.0 (20220707.1540)
 -->
<!-- Title: dependencies Pages: 1 -->
<svg width="1896pt" height="247pt"
 viewBox="0.00 0.00 1896.00 246.80" xmlns="http://www.w3.org/2000/svg" xmlns:xlink="http://www.w3.org/1999/xlink">
<g id="graph0" class="graph" transform="scale(1 1) rotate(0) translate(4 242.8)">
<title>dependencies</title>
<polygon fill="white" stroke="transparent" points="-4,4 -4,-242.8 1892,-242.8 1892,4 -4,4"/>
<text text-anchor="middle" x="944" y="-8.2" font-family="sans-serif" font-size="14.00">dependencies</text>
<g id="clust1" class="cluster">
<title>cluster_AppModule</title>
<polygon fill="none" stroke="black" stroke-dasharray="1,5" points="8,-32.8 8,-230.8 1880,-230.8 1880,-32.8 8,-32.8"/>
</g>
<g id="clust14" class="cluster">
<title>cluster_AppModule_imports</title>
<polygon fill="none" stroke="black" points="1728,-40.8 1728,-92.8 1872,-92.8 1872,-40.8 1728,-40.8"/>
</g>
<g id="clust16" class="cluster">
<title>cluster_AppModule_bootstrap</title>
<polygon fill="none" stroke="black" points="889,-170.8 889,-222.8 1013,-222.8 1013,-170.8 889,-170.8"/>
</g>
<g id="clust2" class="cluster">
<title>cluster_AppModule_declarations</title>
<polygon fill="none" stroke="black" points="16,-40.8 16,-92.8 1720,-92.8 1720,-40.8 16,-40.8"/>
</g>
<!-- AppComponent -->
<g id="node1" class="node">
<title>AppComponent</title>
<polygon fill="#ffffb3" stroke="black" points="1711.94,-84.8 1606.06,-84.8 1606.06,-48.8 1711.94,-48.8 1711.94,-84.8"/>
<text text-anchor="middle" x="1659" y="-62.6" font-family="Times,serif" font-size="14.00">AppComponent</text>
</g>
<!-- AppModule -->
<g id="node12" class="node">
<title>AppModule</title>
<polygon fill="#8dd3c7" stroke="black" points="992.66,-149.8 989.66,-153.8 968.66,-153.8 965.66,-149.8 909.34,-149.8 909.34,-113.8 992.66,-113.8 992.66,-149.8"/>
<text text-anchor="middle" x="951" y="-127.6" font-family="Times,serif" font-size="14.00">AppModule</text>
</g>
<!-- AppComponent&#45;&gt;AppModule -->
<g id="edge1" class="edge">
<title>AppComponent&#45;&gt;AppModule</title>
<path fill="none" stroke="black" d="M1659,-85.08C1659,-106.12 1659,-137.8 1659,-137.8 1659,-137.8 1002.91,-137.8 1002.91,-137.8"/>
<polygon fill="black" stroke="black" points="1002.91,-134.3 992.91,-137.8 1002.91,-141.3 1002.91,-134.3"/>
</g>
<!-- CreateDocumentComponent -->
<g id="node2" class="node">
<title>CreateDocumentComponent</title>
<polygon fill="#ffffb3" stroke="black" points="1588.18,-84.8 1411.82,-84.8 1411.82,-48.8 1588.18,-48.8 1588.18,-84.8"/>
<text text-anchor="middle" x="1500" y="-62.6" font-family="Times,serif" font-size="14.00">CreateDocumentComponent</text>
</g>
<!-- CreateDocumentComponent&#45;&gt;AppModule -->
<g id="edge2" class="edge">
<title>CreateDocumentComponent&#45;&gt;AppModule</title>
<path fill="none" stroke="black" d="M1500,-84.91C1500,-104.14 1500,-131.8 1500,-131.8 1500,-131.8 1002.71,-131.8 1002.71,-131.8"/>
<polygon fill="black" stroke="black" points="1002.71,-128.3 992.71,-131.8 1002.71,-135.3 1002.71,-128.3"/>
</g>
<!-- DocumentInfoComponent -->
<g id="node3" class="node">
<title>DocumentInfoComponent</title>
<polygon fill="#ffffb3" stroke="black" points="1393.47,-84.8 1230.53,-84.8 1230.53,-48.8 1393.47,-48.8 1393.47,-84.8"/>
<text text-anchor="middle" x="1312" y="-62.6" font-family="Times,serif" font-size="14.00">DocumentInfoComponent</text>
</g>
<!-- DocumentInfoComponent&#45;&gt;AppModule -->
<g id="edge3" class="edge">
<title>DocumentInfoComponent&#45;&gt;AppModule</title>
<path fill="none" stroke="black" d="M1312,-84.82C1312,-102.17 1312,-125.8 1312,-125.8 1312,-125.8 1002.76,-125.8 1002.76,-125.8"/>
<polygon fill="black" stroke="black" points="1002.76,-122.3 992.76,-125.8 1002.76,-129.3 1002.76,-122.3"/>
</g>
<!-- EditorComponent -->
<g id="node4" class="node">
<title>EditorComponent</title>
<polygon fill="#ffffb3" stroke="black" points="1212.32,-84.8 1095.68,-84.8 1095.68,-48.8 1212.32,-48.8 1212.32,-84.8"/>
<text text-anchor="middle" x="1154" y="-62.6" font-family="Times,serif" font-size="14.00">EditorComponent</text>
</g>
<!-- EditorComponent&#45;&gt;AppModule -->
<g id="edge4" class="edge">
<title>EditorComponent&#45;&gt;AppModule</title>
<path fill="none" stroke="black" d="M1154,-85.04C1154,-100.37 1154,-119.8 1154,-119.8 1154,-119.8 1003.06,-119.8 1003.06,-119.8"/>
<polygon fill="black" stroke="black" points="1003.06,-116.3 993.06,-119.8 1003.06,-123.3 1003.06,-116.3"/>
</g>
<!-- FooterComponent -->
<g id="node5" class="node">
<title>FooterComponent</title>
<polygon fill="#ffffb3" stroke="black" points="1077.88,-84.8 960.12,-84.8 960.12,-48.8 1077.88,-48.8 1077.88,-84.8"/>
<text text-anchor="middle" x="1019" y="-62.6" font-family="Times,serif" font-size="14.00">FooterComponent</text>
</g>
<!-- FooterComponent&#45;&gt;AppModule -->
<g id="edge5" class="edge">
<title>FooterComponent&#45;&gt;AppModule</title>
<path fill="none" stroke="black" d="M976.44,-84.91C976.44,-84.91 976.44,-103.79 976.44,-103.79"/>
<polygon fill="black" stroke="black" points="972.94,-103.79 976.44,-113.79 979.94,-103.79 972.94,-103.79"/>
</g>
<!-- HomeComponent -->
<g id="node6" class="node">
<title>HomeComponent</title>
<polygon fill="#ffffb3" stroke="black" points="941.55,-84.8 826.45,-84.8 826.45,-48.8 941.55,-48.8 941.55,-84.8"/>
<text text-anchor="middle" x="884" y="-62.6" font-family="Times,serif" font-size="14.00">HomeComponent</text>
</g>
<!-- HomeComponent&#45;&gt;AppModule -->
<g id="edge6" class="edge">
<title>HomeComponent&#45;&gt;AppModule</title>
<path fill="none" stroke="black" d="M925.47,-84.91C925.47,-84.91 925.47,-103.79 925.47,-103.79"/>
<polygon fill="black" stroke="black" points="921.97,-103.79 925.47,-113.79 928.97,-103.79 921.97,-103.79"/>
</g>
<!-- HowItWorksComponent -->
<g id="node7" class="node">
<title>HowItWorksComponent</title>
<polygon fill="#ffffb3" stroke="black" points="808.43,-84.8 653.57,-84.8 653.57,-48.8 808.43,-48.8 808.43,-84.8"/>
<text text-anchor="middle" x="731" y="-62.6" font-family="Times,serif" font-size="14.00">HowItWorksComponent</text>
</g>
<!-- HowItWorksComponent&#45;&gt;AppModule -->
<g id="edge7" class="edge">
<title>HowItWorksComponent&#45;&gt;AppModule</title>
<path fill="none" stroke="black" d="M731,-85.04C731,-100.37 731,-119.8 731,-119.8 731,-119.8 899.1,-119.8 899.1,-119.8"/>
<polygon fill="black" stroke="black" points="899.1,-123.3 909.1,-119.8 899.1,-116.3 899.1,-123.3"/>
</g>
<!-- MonacoComponent -->
<g id="node8" class="node">
<title>MonacoComponent</title>
<polygon fill="#ffffb3" stroke="black" points="635.71,-84.8 508.29,-84.8 508.29,-48.8 635.71,-48.8 635.71,-84.8"/>
<text text-anchor="middle" x="572" y="-62.6" font-family="Times,serif" font-size="14.00">MonacoComponent</text>
</g>
<!-- MonacoComponent&#45;&gt;AppModule -->
<g id="edge8" class="edge">
<title>MonacoComponent&#45;&gt;AppModule</title>
<path fill="none" stroke="black" d="M572,-84.82C572,-102.17 572,-125.8 572,-125.8 572,-125.8 898.99,-125.8 898.99,-125.8"/>
<polygon fill="black" stroke="black" points="898.99,-129.3 908.99,-125.8 898.99,-122.3 898.99,-129.3"/>
</g>
<!-- OpenDocumentComponent -->
<g id="node9" class="node">
<title>OpenDocumentComponent</title>
<polygon fill="#ffffb3" stroke="black" points="489.97,-84.8 320.03,-84.8 320.03,-48.8 489.97,-48.8 489.97,-84.8"/>
<text text-anchor="middle" x="405" y="-62.6" font-family="Times,serif" font-size="14.00">OpenDocumentComponent</text>
</g>
<!-- OpenDocumentComponent&#45;&gt;AppModule -->
<g id="edge9" class="edge">
<title>OpenDocumentComponent&#45;&gt;AppModule</title>
<path fill="none" stroke="black" d="M405,-84.91C405,-104.14 405,-131.8 405,-131.8 405,-131.8 899.06,-131.8 899.06,-131.8"/>
<polygon fill="black" stroke="black" points="899.06,-135.3 909.06,-131.8 899.06,-128.3 899.06,-135.3"/>
</g>
<!-- ToolbarComponent -->
<g id="node10" class="node">
<title>ToolbarComponent</title>
<polygon fill="#ffffb3" stroke="black" points="301.65,-84.8 176.35,-84.8 176.35,-48.8 301.65,-48.8 301.65,-84.8"/>
<text text-anchor="middle" x="239" y="-62.6" font-family="Times,serif" font-size="14.00">ToolbarComponent</text>
</g>
<!-- ToolbarComponent&#45;&gt;AppModule -->
<g id="edge10" class="edge">
<title>ToolbarComponent&#45;&gt;AppModule</title>
<path fill="none" stroke="black" d="M239,-85.08C239,-106.12 239,-137.8 239,-137.8 239,-137.8 899.12,-137.8 899.12,-137.8"/>
<polygon fill="black" stroke="black" points="899.12,-141.3 909.12,-137.8 899.12,-134.3 899.12,-141.3"/>
</g>
<!-- WelcomeComponent -->
<g id="node11" class="node">
<title>WelcomeComponent</title>
<polygon fill="#ffffb3" stroke="black" points="158.47,-84.8 23.53,-84.8 23.53,-48.8 158.47,-48.8 158.47,-84.8"/>
<text text-anchor="middle" x="91" y="-62.6" font-family="Times,serif" font-size="14.00">WelcomeComponent</text>
</g>
<!-- WelcomeComponent&#45;&gt;AppModule -->
<g id="edge11" class="edge">
<title>WelcomeComponent&#45;&gt;AppModule</title>
<path fill="none" stroke="black" d="M91,-85.05C91,-107.82 91,-143.8 91,-143.8 91,-143.8 899.23,-143.8 899.23,-143.8"/>
<polygon fill="black" stroke="black" points="899.23,-147.3 909.23,-143.8 899.23,-140.3 899.23,-147.3"/>
</g>
<!-- AppComponent  -->
<g id="node14" class="node">
<title>AppComponent </title>
<polygon fill="#80b1d3" stroke="black" points="1005.44,-214.8 896.56,-214.8 896.56,-178.8 1005.44,-178.8 1005.44,-214.8"/>
<text text-anchor="middle" x="951" y="-192.6" font-family="Times,serif" font-size="14.00">AppComponent </text>
</g>
<!-- AppModule&#45;&gt;AppComponent  -->
<g id="edge13" class="edge">
<title>AppModule&#45;&gt;AppComponent </title>
<path fill="none" stroke="black" stroke-dasharray="1,5" d="M951,-149.91C951,-149.91 951,-168.79 951,-168.79"/>
<polygon fill="black" stroke="black" points="947.5,-168.79 951,-178.79 954.5,-168.79 947.5,-168.79"/>
</g>
<!-- AppRoutingModule -->
<g id="node13" class="node">
<title>AppRoutingModule</title>
<polygon fill="#8dd3c7" stroke="black" points="1864.28,-84.8 1861.28,-88.8 1840.28,-88.8 1837.28,-84.8 1735.72,-84.8 1735.72,-48.8 1864.28,-48.8 1864.28,-84.8"/>
<text text-anchor="middle" x="1800" y="-62.6" font-family="Times,serif" font-size="14.00">AppRoutingModule</text>
</g>
<!-- AppRoutingModule&#45;&gt;AppModule -->
<g id="edge12" class="edge">
<title>AppRoutingModule&#45;&gt;AppModule</title>
<path fill="none" stroke="black" d="M1800,-85.05C1800,-107.82 1800,-143.8 1800,-143.8 1800,-143.8 1002.81,-143.8 1002.81,-143.8"/>
<polygon fill="black" stroke="black" points="1002.81,-140.3 992.81,-143.8 1002.81,-147.3 1002.81,-140.3"/>
</g>
</g>
</svg>
